<svg id="disabled" xmlns="http://www.w3.org/2000/svg" xmlns:xlink="http://www.w3.org/1999/xlink" viewBox="0 0 96.31 123.43"><defs><style>.cls-1{fill:#999899;}.cls-2{fill:url(#未命名漸層_13);}.cls-3{fill:#fff;}</style><linearGradient id="未命名漸層_13" x1="15.52" y1="25.65" x2="94.81" y2="80.32" gradientUnits="userSpaceOnUse"><stop offset="0" stop-color="#d3d3d3"/><stop offset="0.88" stop-color="#999799"/></linearGradient></defs><polygon class="cls-1" points="48.15 123.43 55.96 90.46 40.35 90.46 48.15 123.43"/><circle class="cls-2" cx="48.15" cy="48.15" r="48.15"/><path class="cls-3" d="M511.43,98.3a.36.36,0,0,0,0-.09L510,96.5s-.07-.06-.1-.1-.13.18-.17.28c-.7,1.74-1.39,3.48-2.09,5.23-.63,1.56-1.25,3.13-1.88,4.69a3.56,3.56,0,0,1-.61,1.05,3.08,3.08,0,0,1-2.32,1h-6.52l-.1.27a12.26,12.26,0,0,1-3.16,5.35,12.1,12.1,0,0,1-5.95,3.28,11.06,11.06,0,0,1-2.92.29,12.13,12.13,0,0,1-8.72-3.94,11.93,11.93,0,0,1-3.07-6,12.43,12.43,0,0,1-.19-3.11,12.32,12.32,0,0,1,11.94-11.46,10.8,10.8,0,0,1,3.15.39l.61.15.21-.35,2.8-4.68a3.94,3.94,0,0,1,.59-.77,3,3,0,0,1,2.06-.86H507.3c.21-.22,2.46-3.59,2.63-3.93l-.21-.23a3.05,3.05,0,0,1,1.66-5,3.43,3.43,0,0,1,.56-.07h9.16a3.69,3.69,0,0,1,1.1.14,3.07,3.07,0,0,1-.38,6,3.89,3.89,0,0,1-.76,0H517a.3.3,0,0,0-.3.16,1.88,1.88,0,0,1-.12.18L513,89.79l-.22.34c1.15,1.45,2.3,2.87,3.44,4.3l.29-.11a12.29,12.29,0,0,1,3.31-.89,11.43,11.43,0,0,1,2.48,0A11.82,11.82,0,0,1,527.44,95a12.12,12.12,0,0,1,5.85,8.19,11.17,11.17,0,0,1,.19,3.46,12.29,12.29,0,0,1-9.71,10.95,11.75,11.75,0,0,1-2.71.26,12.34,12.34,0,0,1-11.69-9.23,12.14,12.14,0,0,1,1.9-10.08l.16-.24Zm-20.84,7.35a6.12,6.12,0,1,0-6.18,6.09A6.14,6.14,0,0,0,490.59,105.65Zm36.78,0a6.12,6.12,0,1,0-6.17,6.09A6.12,6.12,0,0,0,527.37,105.65Zm-31.06-3.13c.55,0,4.18,0,4.46,0l0-.05a1.76,1.76,0,0,0,.09-.2l3.51-8.79v0l0-.08h-8.91c-.2.25-2.08,3.38-2.22,3.69A12.3,12.3,0,0,1,496.31,102.52Z" transform="translate(-454.25 -48.65)"/><path class="cls-3" d="M493.68,84.17h-2.91a3.79,3.79,0,0,1-.89-.09,3.06,3.06,0,0,1,.7-6c2.06,0,4.12,0,6.18,0a3.07,3.07,0,0,1,.78,6,3.31,3.31,0,0,1-1,.11Z" transform="translate(-454.25 -48.65)"/></svg>