<svg id="full" xmlns="http://www.w3.org/2000/svg" xmlns:xlink="http://www.w3.org/1999/xlink" viewBox="0 0 96.31 123.43"><defs><style>.cls-1{fill:#c4514f;}.cls-2{fill:url(#未命名漸層_9);}.cls-3{fill:#fff;}</style><linearGradient id="未命名漸層_9" x1="15.52" y1="25.65" x2="94.81" y2="80.32" gradientUnits="userSpaceOnUse"><stop offset="0" stop-color="#eca371"/><stop offset="0.86" stop-color="#bb4f4d"/></linearGradient></defs><polygon class="cls-1" points="48.15 123.43 55.96 90.46 40.35 90.46 48.15 123.43"/><circle class="cls-2" cx="48.15" cy="48.15" r="48.15"/><path class="cls-3" d="M385.94,98.3a.18.18,0,0,0,0-.09l-1.36-1.71-.1-.1c-.13.06-.13.18-.17.28-.7,1.74-1.39,3.48-2.09,5.23-.63,1.56-1.25,3.13-1.88,4.69a3.56,3.56,0,0,1-.61,1.05,3.08,3.08,0,0,1-2.32,1h-6.52c0,.1-.07.18-.1.27a12.26,12.26,0,0,1-3.16,5.35,12.06,12.06,0,0,1-5.95,3.28,11.06,11.06,0,0,1-2.92.29A12.13,12.13,0,0,1,350,114a11.84,11.84,0,0,1-3.06-6,11.56,11.56,0,0,1-.19-3.11,12.31,12.31,0,0,1,11.93-11.46,10.91,10.91,0,0,1,3.16.39l.6.15.21-.35,2.8-4.68a3.94,3.94,0,0,1,.59-.77,3,3,0,0,1,2.06-.86h13.71c.21-.22,2.46-3.59,2.63-3.93l-.21-.23a3.05,3.05,0,0,1,1.66-5,3.55,3.55,0,0,1,.57-.07h9.16a3.67,3.67,0,0,1,1.09.14,3.07,3.07,0,0,1-.38,6,3.83,3.83,0,0,1-.76,0h-4.09a.3.3,0,0,0-.3.16,1.74,1.74,0,0,1-.11.18l-3.53,5.28-.22.34c1.15,1.45,2.3,2.87,3.44,4.3l.29-.11a12.36,12.36,0,0,1,3.32-.89,11.33,11.33,0,0,1,2.47,0A11.82,11.82,0,0,1,402,95a12.17,12.17,0,0,1,5.86,8.19,11.48,11.48,0,0,1,.18,3.46,12.29,12.29,0,0,1-9.71,10.95,11.75,11.75,0,0,1-2.71.26,12.34,12.34,0,0,1-11.69-9.23,11.92,11.92,0,0,1-.35-3.81,12.1,12.1,0,0,1,2.25-6.27l.16-.24Zm-20.84,7.35a6.12,6.12,0,1,0-6.17,6.09A6.14,6.14,0,0,0,365.1,105.65Zm36.78,0a6.12,6.12,0,1,0-6.17,6.09A6.12,6.12,0,0,0,401.88,105.65Zm-31.06-3.13c.56,0,4.18,0,4.46,0,0,0,0,0,.05-.05a1.67,1.67,0,0,0,.08-.2l3.51-8.79s0,0,0,0l0-.08H370c-.2.25-2.08,3.38-2.22,3.69A12.3,12.3,0,0,1,370.82,102.52Z" transform="translate(-328.76 -48.65)"/><path class="cls-3" d="M368.19,84.17h-2.91a3.84,3.84,0,0,1-.89-.09,3.08,3.08,0,0,1,.28-6,3,3,0,0,1,.43,0c2,0,4.11,0,6.17,0a3.07,3.07,0,0,1,.79,6,3.38,3.38,0,0,1-1,.11Z" transform="translate(-328.76 -48.65)"/></svg>