<svg id="nobike" xmlns="http://www.w3.org/2000/svg" xmlns:xlink="http://www.w3.org/1999/xlink" viewBox="0 0 96.31 123.43"><defs><style>.cls-1{fill:#e2a94a;}.cls-2{fill:url(#未命名漸層_10);}.cls-3{fill:#fff;}</style><linearGradient id="未命名漸層_10" x1="15.52" y1="25.65" x2="94.81" y2="80.32" gradientUnits="userSpaceOnUse"><stop offset="0" stop-color="#e4d38a"/><stop offset="0.87" stop-color="#daa54b"/></linearGradient></defs><polygon class="cls-1" points="48.15 123.43 55.96 90.46 40.35 90.46 48.15 123.43"/><circle class="cls-2" cx="48.15" cy="48.15" r="48.15"/><path class="cls-3" d="M264,98.3a.18.18,0,0,0,0-.09l-1.36-1.71s-.07-.06-.1-.1-.13.18-.17.28c-.7,1.74-1.39,3.48-2.09,5.23-.63,1.56-1.25,3.13-1.88,4.69a3.36,3.36,0,0,1-.61,1.05,3.08,3.08,0,0,1-2.32,1h-6.52c0,.1-.07.18-.1.27a12.26,12.26,0,0,1-3.16,5.35,12,12,0,0,1-6,3.28,11,11,0,0,1-2.92.29,12.13,12.13,0,0,1-8.72-3.94,11.84,11.84,0,0,1-3.06-6,11.56,11.56,0,0,1-.19-3.11,12.31,12.31,0,0,1,11.93-11.46,10.91,10.91,0,0,1,3.16.39l.6.15.21-.35,2.8-4.68a3.94,3.94,0,0,1,.59-.77,3,3,0,0,1,2.07-.86h13.7c.21-.22,2.46-3.59,2.63-3.93-.06-.07-.14-.15-.2-.23a3,3,0,0,1,1.65-5,3.55,3.55,0,0,1,.57-.07h9.16a3.67,3.67,0,0,1,1.09.14,3.07,3.07,0,0,1-.38,6,3.78,3.78,0,0,1-.75,0h-4.1a.3.3,0,0,0-.3.16,1.74,1.74,0,0,1-.11.18l-3.53,5.28-.22.34c1.15,1.45,2.3,2.87,3.44,4.3l.29-.11a12.36,12.36,0,0,1,3.32-.89,11.33,11.33,0,0,1,2.47,0A11.82,11.82,0,0,1,280,95a12.17,12.17,0,0,1,5.86,8.19,11.82,11.82,0,0,1,.19,3.46,12.31,12.31,0,0,1-9.72,10.95,11.7,11.7,0,0,1-2.71.26,12.11,12.11,0,0,1-7.78-3,12,12,0,0,1-3.9-6.26,11.65,11.65,0,0,1-.36-3.81,12.1,12.1,0,0,1,2.25-6.27l.16-.24Zm-20.84,7.35a6.12,6.12,0,1,0-6.17,6.09A6.12,6.12,0,0,0,243.19,105.65Zm36.78,0a6.12,6.12,0,1,0-6.17,6.09A6.12,6.12,0,0,0,280,105.65Zm-31.06-3.13c.56,0,4.18,0,4.46,0,0,0,0,0,0-.05a1.67,1.67,0,0,0,.08-.2L257,93.47s0,0,0,0l0-.08h-8.91c-.2.25-2.08,3.38-2.21,3.69A12.38,12.38,0,0,1,248.91,102.52Z" transform="translate(-206.85 -48.65)"/><path class="cls-3" d="M246.28,84.17h-2.91a3.84,3.84,0,0,1-.89-.09,3.08,3.08,0,0,1,.28-6,3,3,0,0,1,.43,0c2.05,0,4.11,0,6.17,0a3.07,3.07,0,0,1,.79,6,3.38,3.38,0,0,1-1,.11Z" transform="translate(-206.85 -48.65)"/></svg>