<svg id="normal" xmlns="http://www.w3.org/2000/svg" xmlns:xlink="http://www.w3.org/1999/xlink" viewBox="0 0 96.31 123.43"><defs><style>.cls-1{fill:#a8cf52;}.cls-2{fill:url(#未命名漸層_11);}.cls-3{fill:#fff;}</style><linearGradient id="未命名漸層_11" x1="15.52" y1="25.65" x2="94.81" y2="80.32" gradientUnits="userSpaceOnUse"><stop offset="0" stop-color="#e4e9ac"/><stop offset="0.87" stop-color="#a2c754"/></linearGradient></defs><polygon class="cls-1" points="48.15 123.43 55.96 90.46 40.35 90.46 48.15 123.43"/><circle class="cls-2" cx="48.15" cy="48.15" r="48.15"/><path class="cls-3" d="M104.92,98.3a.36.36,0,0,0,0-.09l-1.36-1.71s-.07-.06-.1-.1-.13.18-.17.28c-.7,1.74-1.39,3.48-2.09,5.23-.63,1.56-1.25,3.13-1.88,4.69a3.56,3.56,0,0,1-.61,1.05,3.08,3.08,0,0,1-2.32,1H89.83l-.1.27a12.26,12.26,0,0,1-3.16,5.35,12.06,12.06,0,0,1-5.95,3.28,11.06,11.06,0,0,1-2.92.29A12.13,12.13,0,0,1,69,114a12.23,12.23,0,0,1-.15-16.5,12.31,12.31,0,0,1,8.83-4.1,10.91,10.91,0,0,1,3.16.39l.6.15.21-.35,2.8-4.68a3.94,3.94,0,0,1,.59-.77,3,3,0,0,1,2.06-.86h13.71c.21-.22,2.46-3.59,2.63-3.93l-.21-.23a3.05,3.05,0,0,1,1.66-5,3.55,3.55,0,0,1,.57-.07h9.15a3.69,3.69,0,0,1,1.1.14,3.07,3.07,0,0,1-.38,6,3.83,3.83,0,0,1-.76,0h-4.09a.3.3,0,0,0-.3.16,1.74,1.74,0,0,1-.11.18l-3.53,5.28-.22.34c1.15,1.45,2.3,2.87,3.44,4.3l.29-.11a12.36,12.36,0,0,1,3.32-.89,11.33,11.33,0,0,1,2.47,0A11.82,11.82,0,0,1,120.93,95a12.12,12.12,0,0,1,5.85,8.19,11.17,11.17,0,0,1,.19,3.46,12.29,12.29,0,0,1-9.71,10.95,11.75,11.75,0,0,1-2.71.26,12.34,12.34,0,0,1-11.69-9.23,12.14,12.14,0,0,1,1.9-10.08c0-.08.1-.16.16-.24Zm-20.84,7.35a6.12,6.12,0,1,0-6.18,6.09A6.14,6.14,0,0,0,84.08,105.65Zm36.78,0a6.12,6.12,0,1,0-6.17,6.09A6.12,6.12,0,0,0,120.86,105.65ZM89.8,102.52c.56,0,4.18,0,4.46,0l0-.05a.88.88,0,0,0,.09-.2l3.51-8.79v0l0-.08H89c-.2.25-2.08,3.38-2.22,3.69A12.3,12.3,0,0,1,89.8,102.52Z" transform="translate(-47.74 -48.65)"/><path class="cls-3" d="M87.17,84.17H84.26a3.79,3.79,0,0,1-.89-.09,3.08,3.08,0,0,1,.27-6,3.17,3.17,0,0,1,.43,0c2.06,0,4.12,0,6.18,0a3.07,3.07,0,0,1,.79,6,3.41,3.41,0,0,1-1,.11Z" transform="translate(-47.74 -48.65)"/></svg>